<?xml version="1.0" encoding="UTF-8"?>
<svg id="Layer_2" data-name="Layer 2" xmlns="http://www.w3.org/2000/svg" viewBox="0 0 1585.03 238.07">
  <defs>
    <style>
      .cls-1 {
        fill: #fff;
      }
    </style>
  </defs>
  <g id="Layer_1-2" data-name="Layer 1">
    <g>
      <path class="cls-1" d="M159.8,70.2c-15.33-17.13-38.39-23.04-58.13-16.35l.34-51.28c-.04-2.25-2.56-3.41-4.07-1.86L17.08,81.45c-22.39,23.18-22.82,61.78-.96,86.2h0c15.54,17.36,36.46,16.24,56.47,16.24v-46.34H23.21c-1.09,0-1.65-1.3-.91-2.1L101.69,53.85l-.5,47.07,48.47.13c1.09,0,1.65,1.31.9,2.11l-77.98,80.72v51.66c.03,2.24,2.52,3.36,4.03,1.82l81.67-81.58c22.39-23.18,23.07-61.5,1.51-85.58Z"/>
      <g>
        <path class="cls-1" d="M217.5,181.5V54.38c0-7.56,6.13-13.68,13.68-13.68h0c7.56,0,13.68,6.13,13.68,13.68v103.13h71.79v24h-99.16Z"/>
        <path class="cls-1" d="M329.75,143.01v-51.15c0-7.34,5.95-13.29,13.29-13.29h0c7.34,0,13.29,5.95,13.29,13.29v45.3c0,7.84,1.45,13.75,4.36,17.73,2.91,3.99,7.21,5.98,12.89,5.98,3.44,0,6.84-.68,10.21-2.04,3.37-1.36,6.48-3.4,9.32-6.12,2.84-2.72,5.26-6.15,7.24-10.3v-50.56c0-7.34,5.95-13.29,13.29-13.29h0c7.34,0,13.29,5.95,13.29,13.29v59.99c0,2.74.5,4.7,1.49,5.88.99,1.18,2.61,1.89,4.86,2.15v21.62c-2.65.4-4.86.69-6.64.89s-3.41.3-4.86.3c-4.76,0-8.63-1.08-11.6-3.24-2.97-2.16-4.73-5.14-5.25-8.94l-.59-8.24c-4.63,6.94-10.58,12.22-17.85,15.82-7.27,3.6-15.27,5.4-24,5.4-10.71,0-18.84-3.44-24.39-10.31-5.55-6.88-8.33-16.93-8.33-30.16Z"/>
        <path class="cls-1" d="M614.74,181.5h-26.58v-57.46c0-8.08-1.42-14.04-4.26-17.88-2.84-3.84-6.78-5.77-11.8-5.77s-10.08,1.99-14.77,5.96c-4.7,3.98-8.03,9.15-10.02,15.54v59.61h-26.58v-57.46c0-8.21-1.42-14.2-4.26-17.98-2.84-3.78-6.78-5.67-11.8-5.67s-10.08,1.94-14.77,5.81c-4.7,3.87-8.03,8.97-10.02,15.3v60h-26.58v-91.3c0-6.42,5.21-11.63,11.63-11.63h.74c6.42,0,11.63,5.21,11.63,11.63v7.57c3.97-6.67,9.25-11.8,15.87-15.39,6.61-3.59,14.21-5.39,22.81-5.39s15.3,2.09,20.13,6.27c4.82,4.18,7.9,9.35,9.22,15.49,4.23-7.06,9.62-12.45,16.16-16.18,6.54-3.72,13.91-5.59,22.11-5.59,6.48,0,11.73,1.15,15.77,3.43,4.03,2.29,7.17,5.36,9.42,9.22,2.25,3.86,3.8,8.2,4.66,13.04.86,4.84,1.29,9.74,1.29,14.71v64.12Z"/>
        <path class="cls-1" d="M638.34,201.73c2.38.53,4.59.99,6.64,1.39,2.05.4,3.8.59,5.26.59,2.51,0,4.59-.63,6.25-1.87,1.65-1.25,3.27-3.47,4.86-6.66,1.59-3.2,3.24-7.66,4.96-13.39l-41.05-103.22h27.57l27.96,76.23,24.59-76.23h25.38l-43.63,123.71c-1.59,4.6-4,8.76-7.24,12.51-3.24,3.74-7.27,6.7-12.1,8.87-4.83,2.17-10.21,3.26-16.16,3.26-2.12,0-4.23-.17-6.35-.5-2.12-.33-4.43-.89-6.94-1.69v-23.01Z"/>
        <path class="cls-1" d="M841.82,181.5h-26.58v-57.46c0-8.21-1.46-14.2-4.36-17.98-2.91-3.78-6.94-5.67-12.1-5.67-3.57,0-7.17.91-10.81,2.71-3.64,1.81-6.91,4.29-9.82,7.46-2.91,3.16-5.03,6.81-6.35,10.94v60h-26.58v-90.93c0-6.63,5.37-12,12-12h0c6.63,0,12,5.37,12,12v7.2c2.64-4.44,6.01-8.2,10.11-11.28,4.1-3.07,8.83-5.42,14.18-7.06,5.35-1.63,11.01-2.45,16.96-2.45,6.48,0,11.8,1.15,15.96,3.43,4.17,2.29,7.34,5.36,9.52,9.22,2.18,3.86,3.7,8.2,4.56,13.04.86,4.84,1.29,9.74,1.29,14.71v64.12Z"/>
        <path class="cls-1" d="M944.85,183.88c-10.71,0-19.93-1.82-27.67-5.45-7.73-3.63-14.31-8.49-19.73-14.58l10.71-9.32c4.89,5.16,10.24,9.12,16.06,11.9,5.82,2.78,12.82,4.16,21.02,4.16s14.44-1.42,19.54-4.26c5.09-2.84,7.64-7.3,7.64-13.39,0-2.64-.5-4.86-1.49-6.64-.99-1.79-2.35-3.2-4.07-4.26-1.72-1.06-3.64-1.88-5.75-2.48-2.12-.59-4.36-1.09-6.74-1.49l-16.06-2.38c-3.57-.53-7.44-1.25-11.6-2.18-4.17-.92-7.97-2.41-11.4-4.46-3.44-2.05-6.32-4.79-8.63-8.23-2.32-3.44-3.47-7.93-3.47-13.49,0-5.16,1.02-9.62,3.07-13.39,2.05-3.77,4.92-6.94,8.63-9.52,3.7-2.58,8.06-4.49,13.09-5.75,5.02-1.25,10.51-1.88,16.46-1.88,9.25,0,17.29,1.46,24.1,4.36,6.81,2.91,12.66,6.94,17.55,12.1l-10.31,9.72c-1.19-1.45-2.68-2.94-4.46-4.46-1.79-1.52-3.97-2.91-6.54-4.17-2.58-1.25-5.59-2.28-9.02-3.07-3.44-.79-7.41-1.19-11.9-1.19-8.07,0-14.25,1.39-18.54,4.17-4.3,2.78-6.45,6.81-6.45,12.1,0,2.65.5,4.86,1.49,6.64.99,1.79,2.35,3.21,4.07,4.26,1.72,1.06,3.67,1.88,5.85,2.48s4.39,1.09,6.64,1.49l16.06,2.38c3.7.53,7.6,1.26,11.7,2.18,4.1.93,7.87,2.41,11.3,4.46,3.44,2.05,6.31,4.79,8.63,8.23,2.31,3.44,3.47,7.93,3.47,13.49,0,10.18-3.94,18.05-11.8,23.6-7.87,5.55-18.34,8.33-31.43,8.33Z"/>
        <path class="cls-1" d="M1067.61,181.5c-7.8,0-13.52-2.18-17.16-6.53-3.64-4.35-5.45-9.96-5.45-16.82v-65.3h-34.11v-13.68h25.39c3.44,0,5.85-.69,7.24-2.08,1.39-1.39,2.08-3.8,2.08-7.24v-26.77h15.27v36.09h46.61v13.68h-46.61v74.97h46.61v13.68h-39.86Z"/>
        <path class="cls-1" d="M1205.84,164.84h-.79c-1.06,2.51-2.38,4.93-3.97,7.24-1.59,2.31-3.54,4.33-5.85,6.05-2.32,1.72-5.06,3.11-8.23,4.16s-6.88,1.59-11.11,1.59c-10.71,0-19.31-3.4-25.78-10.21-6.48-6.81-9.72-16.43-9.72-28.86v-65.64h15.87v62.87c0,9.39,2.05,16.36,6.15,20.92,4.1,4.56,10.11,6.84,18.05,6.84,3.17,0,6.28-.4,9.32-1.19,3.04-.79,5.75-1.98,8.13-3.57,2.38-1.59,4.29-3.6,5.75-6.05,1.45-2.44,2.18-5.39,2.18-8.83v-71h15.87v102.33h-15.87v-16.66Z"/>
        <path class="cls-1" d="M1325.43,164.84h-.79c-6.61,12.69-17.12,19.04-31.53,19.04-12.56,0-22.38-4.69-29.45-14.08-7.07-9.39-10.61-22.54-10.61-39.47s3.54-30.08,10.61-39.47c7.07-9.39,16.89-14.08,29.45-14.08,14.41,0,24.92,6.35,31.53,19.04h.79v-61.08h15.87v146.76h-15.87v-16.66ZM1299.25,169.8c3.57,0,6.94-.46,10.11-1.39,3.17-.92,5.95-2.28,8.33-4.07,2.38-1.78,4.26-3.97,5.65-6.54,1.39-2.58,2.08-5.58,2.08-9.02v-36.89c0-3.44-.69-6.45-2.08-9.02-1.39-2.58-3.27-4.76-5.65-6.54s-5.16-3.14-8.33-4.07c-3.17-.92-6.54-1.39-10.11-1.39-9.26,0-16.43,2.81-21.52,8.43-5.09,5.62-7.64,13.06-7.64,22.31v17.45c0,9.26,2.54,16.69,7.64,22.31,5.09,5.62,12.26,8.43,21.52,8.43Z"/>
        <path class="cls-1" d="M1381.15,167.82h36.89v-74.97h-36.89v-13.68h52.75v88.65h34.51v13.68h-87.26v-13.68ZM1425.97,56.56c-4.63,0-7.87-.96-9.72-2.88-1.85-1.92-2.78-4.33-2.78-7.24v-3.17c0-2.91.92-5.32,2.78-7.24,1.85-1.92,5.09-2.88,9.72-2.88s7.87.96,9.72,2.88c1.85,1.92,2.78,4.33,2.78,7.24v3.17c0,2.91-.93,5.32-2.78,7.24-1.85,1.92-5.09,2.88-9.72,2.88Z"/>
        <path class="cls-1" d="M1538.62,183.88c-7.14,0-13.58-1.26-19.34-3.77-5.75-2.51-10.64-6.11-14.68-10.81-4.03-4.69-7.11-10.31-9.22-16.86-2.12-6.54-3.17-13.91-3.17-22.11s1.06-15.4,3.17-22.01c2.11-6.61,5.19-12.26,9.22-16.96,4.03-4.69,8.92-8.29,14.68-10.81,5.75-2.51,12.2-3.77,19.34-3.77s13.58,1.26,19.34,3.77c5.75,2.51,10.64,6.12,14.68,10.81,4.03,4.69,7.11,10.35,9.22,16.96,2.11,6.61,3.17,13.95,3.17,22.01s-1.06,15.57-3.17,22.11c-2.12,6.54-5.19,12.17-9.22,16.86-4.03,4.7-8.92,8.3-14.68,10.81-5.75,2.51-12.2,3.77-19.34,3.77ZM1538.62,170.2c8.86,0,16-2.64,21.42-7.93,5.42-5.29,8.13-13.49,8.13-24.59v-14.68c0-11.11-2.71-19.3-8.13-24.59-5.42-5.29-12.56-7.93-21.42-7.93s-16,2.65-21.42,7.93c-5.42,5.29-8.13,13.49-8.13,24.59v14.68c0,11.11,2.71,19.31,8.13,24.59,5.42,5.29,12.56,7.93,21.42,7.93Z"/>
        <circle class="cls-1" cx="871.74" cy="169.08" r="11.59"/>
      </g>
    </g>
  </g>
</svg>